<svg xmlns="http://www.w3.org/2000/svg" viewBox="0 0 240 240" role="img" aria-label="Goofy owl">
  <defs>
    <linearGradient id="owlBody" x1="0" x2="1" y1="0" y2="1">
      <stop offset="0%" stop-color="#0b7a75"/>
      <stop offset="100%" stop-color="#0ea5a3"/>
    </linearGradient>
  </defs>
  <rect width="240" height="240" rx="48" fill="#f7f8f9"/>
  <circle cx="120" cy="130" r="72" fill="url(#owlBody)"/>
  <circle cx="76" cy="96" r="28" fill="#ffffff"/>
  <circle cx="164" cy="96" r="28" fill="#ffffff"/>
  <circle cx="84" cy="102" r="10" fill="#0f1720"/>
  <circle cx="156" cy="102" r="10" fill="#0f1720"/>
  <circle cx="88" cy="98" r="4" fill="#ffffff"/>
  <circle cx="160" cy="98" r="4" fill="#ffffff"/>
  <path d="M120 118 l18 20 -18 18 -18 -18z" fill="#f6c453"/>
  <path d="M52 138 q18 18 8 42" stroke="#0f1720" stroke-width="6" stroke-linecap="round" fill="none"/>
  <path d="M188 138 q-18 18 -8 42" stroke="#0f1720" stroke-width="6" stroke-linecap="round" fill="none"/>
  <path d="M90 176 q30 26 60 0" stroke="#ffffff" stroke-width="6" stroke-linecap="round" fill="none"/>
  <path d="M58 70 q26 -26 52 -10" stroke="#0b7a75" stroke-width="10" stroke-linecap="round" fill="none"/>
  <path d="M182 70 q-26 -26 -52 -10" stroke="#0b7a75" stroke-width="10" stroke-linecap="round" fill="none"/>
</svg>
